<svg width="190" height="100" viewBox="0 0 190 100" fill="none" xmlns="http://www.w3.org/2000/svg">
<path d="M14.2013 92.4704L19.7898 78.816H28.1725V79.381H27.505C26.8976 79.381 26.4106 79.4873 26.0478 79.702C25.7949 79.8438 25.5917 80.0835 25.4404 80.4192C25.3285 80.6631 25.2726 81.301 25.2726 82.3287V95.9831C25.2726 97.0421 25.3285 97.705 25.4404 97.9697C25.5524 98.2345 25.7804 98.4658 26.1245 98.6639C26.4686 98.8619 26.9287 98.962 27.5071 98.962H28.1746V99.527H17.4225V98.962H18.09C18.6974 98.962 19.1845 98.8557 19.5472 98.641C19.8001 98.4992 20.0033 98.2553 20.1546 97.9072C20.2665 97.6633 20.3225 97.0212 20.3225 95.9831V80.6338L12.4248 99.527H12.06L4.04211 80.7715V95.3577C4.04211 96.375 4.06701 97.0025 4.11883 97.2359C4.2515 97.7446 4.53546 98.1594 4.97698 98.4805C5.41643 98.8015 6.10877 98.962 7.04986 98.962V99.527H0.0041498V98.962H0.217662C0.673695 98.9725 1.09861 98.8974 1.49246 98.741C1.88631 98.5826 2.18482 98.3721 2.38796 98.1073C2.58903 97.8426 2.74657 97.4715 2.85851 96.9921C2.87923 96.8795 2.88755 96.3604 2.88755 95.4348V82.3308C2.88755 81.2822 2.83157 80.6276 2.71964 80.3691C2.6077 80.1085 2.37968 79.8792 2.03558 79.6812C1.69148 79.4832 1.23132 79.3831 0.652987 79.3831H0V78.8181H8.41383L14.2013 92.4704Z" fill="white"/>
<path d="M57.7359 80.0063V88.4366H58.1464C59.4523 88.4366 60.3996 88.0238 60.9862 87.2003C61.5728 86.3748 61.9481 85.1595 62.1097 83.5501H62.6881V94.3944H62.1097C61.9895 93.2145 61.7325 92.2473 61.3428 91.4926C60.9531 90.7401 60.4991 90.2335 59.983 89.9729C59.4668 89.7123 58.7164 89.5831 57.7359 89.5831V95.418C57.7359 96.5583 57.7836 97.2567 57.881 97.511C57.9764 97.7653 58.1568 97.9738 58.42 98.1364C58.6833 98.299 59.1082 98.3803 59.6948 98.3803H60.9241C62.8477 98.3803 64.3899 97.9321 65.5486 97.0357C66.7073 96.1393 67.5407 94.7759 68.0464 92.9415H68.6082L67.6816 99.5248H49.8839V98.9598H50.5679C51.1649 98.9598 51.6459 98.8535 52.0107 98.6388C52.2739 98.497 52.4771 98.2531 52.618 97.905C52.73 97.6611 52.7859 97.019 52.7859 95.9809V82.3577C52.7859 81.4217 52.761 80.8443 52.7092 80.6316C52.6076 80.2752 52.4211 80 52.1475 79.8061C51.7619 79.5205 51.2354 79.3788 50.5679 79.3788H49.8839V78.8138H67.1199V84.9385H66.5415C66.2472 83.4418 65.8347 82.3682 65.304 81.7157C64.7713 81.0632 64.0209 80.5858 63.0488 80.2794C62.4829 80.0959 61.4194 80.0042 59.8606 80.0042H57.7359V80.0063Z" fill="white"/>
<path d="M99.0089 80.0063V88.4366H99.4194C100.725 88.4366 101.673 88.0238 102.259 87.2003C102.846 86.3748 103.221 85.1595 103.383 83.5501H103.961V94.3944H103.383C103.262 93.2145 103.005 92.2473 102.616 91.4926C102.226 90.7401 101.772 90.2335 101.256 89.9729C100.74 89.7123 99.9894 89.5831 99.0089 89.5831V95.418C99.0089 96.5583 99.0566 97.2567 99.154 97.511C99.2494 97.7653 99.4297 97.9738 99.693 98.1364C99.9562 98.299 100.381 98.3803 100.968 98.3803H102.197C104.121 98.3803 105.663 97.9321 106.822 97.0357C107.98 96.1393 108.814 94.7759 109.319 92.9415H109.881L108.955 99.5248H91.1569V98.9598H91.8409C92.4379 98.9598 92.9188 98.8535 93.2836 98.6388C93.5469 98.497 93.75 98.2531 93.891 97.905C94.0029 97.6611 94.0589 97.019 94.0589 95.9809V82.3577C94.0589 81.4217 94.034 80.8443 93.9822 80.6316C93.8806 80.2752 93.6941 80 93.4205 79.8061C93.0349 79.5205 92.5084 79.3788 91.8409 79.3788H91.1569V78.8138H108.393V84.9385H107.815C107.52 83.4418 107.108 82.3682 106.577 81.7157C106.044 81.0632 105.294 80.5858 104.322 80.2794C103.756 80.0959 102.692 80.0042 101.134 80.0042H99.0089V80.0063Z" fill="white"/>
<path d="M136.227 79.3807V78.8158H147.176V79.3807H146.509C145.901 79.3807 145.414 79.487 145.051 79.7018C144.799 79.8435 144.595 80.0874 144.444 80.4356C144.332 80.6795 144.276 81.3215 144.276 82.3597V92.5015C144.276 94.4861 144.079 95.9307 143.685 96.8313C143.29 97.7319 142.589 98.4865 141.581 99.091C140.574 99.6976 139.361 99.9999 137.944 99.9999C136.213 99.9999 134.811 99.5413 133.744 98.6261C132.676 97.711 132.142 96.6978 132.142 95.5867C132.142 94.8738 132.359 94.2964 132.795 93.8523C133.23 93.4083 133.761 93.1873 134.389 93.1873C135.006 93.1873 135.525 93.3854 135.945 93.7835C136.366 94.1796 136.576 94.6695 136.576 95.249C136.576 95.5346 136.54 95.7848 136.47 95.9974C136.43 96.0996 136.269 96.356 135.991 96.7687C135.713 97.1815 135.572 97.4733 135.572 97.6464C135.572 97.9111 135.705 98.1404 135.968 98.3343C136.352 98.6199 136.853 98.7617 137.471 98.7617C137.906 98.7617 138.265 98.6491 138.549 98.426C138.833 98.203 139.032 97.8527 139.15 97.3795C139.266 96.9063 139.324 95.5909 139.324 93.4312V82.3576C139.324 81.2986 139.266 80.6357 139.15 80.3709C139.034 80.1062 138.806 79.8748 138.466 79.6768C138.126 79.4787 137.668 79.3786 137.092 79.3786H136.227V79.3807Z" fill="white"/>
<path d="M180.827 93.6295H173.554L172.687 95.6453C172.403 96.3165 172.262 96.8731 172.262 97.3088C172.262 97.8904 172.495 98.3178 172.961 98.5909C173.235 98.7535 173.908 98.8765 174.98 98.9578V99.5227H168.131V98.9578C168.869 98.8452 169.478 98.5388 169.953 98.0343C170.43 97.5298 171.017 96.4896 171.715 94.9115L179.08 78.3866H179.368L186.795 95.3702C187.504 96.9795 188.087 97.9926 188.543 98.4095C188.887 98.7243 189.372 98.9078 190 98.9599V99.5248H180.038V98.9599H180.448C181.248 98.9599 181.81 98.8473 182.133 98.6242C182.355 98.4616 182.467 98.2282 182.467 97.9217C182.467 97.7383 182.436 97.5507 182.376 97.3568C182.355 97.2651 182.204 96.8836 181.92 96.2123L180.827 93.6295ZM180.309 92.4996L177.241 85.3681L174.082 92.4996H180.309Z" fill="white"/>
<path d="M81.885 62.6414V10.9486C81.8871 9.44971 82.4861 8.11967 83.4708 7.13572C84.4595 6.15594 85.7945 5.55766 87.2994 5.55557C88.8043 5.55766 90.1392 6.15594 91.128 7.13572C92.1126 8.11967 92.7116 9.45179 92.7137 10.9486V54.703C92.7137 56.2373 93.9616 57.4819 95.5038 57.4819C97.0439 57.4819 98.2918 56.2373 98.2918 54.703V10.9486C98.2939 7.93417 97.0564 5.17825 95.0727 3.20618C93.0931 1.22994 90.3258 -0.002082 87.2994 2.64131e-06C84.273 -0.002082 81.5077 1.22994 79.5261 3.20618C77.5403 5.17825 76.3048 7.93417 76.3069 10.9486V62.6414C76.3069 64.1757 77.5548 65.4202 79.097 65.4202C80.635 65.4202 81.885 64.1757 81.885 62.6414Z" fill="white"/>
<path d="M98.2898 54.703V10.9486C98.2919 9.44971 98.8909 8.11967 99.8755 7.13572C100.864 6.15594 102.199 5.55766 103.704 5.55557C105.209 5.55766 106.544 6.15594 107.533 7.13572C108.517 8.11967 109.116 9.45179 109.119 10.9486V62.6414C109.119 64.1757 110.366 65.4202 111.907 65.4202C113.447 65.4202 114.697 64.1757 114.697 62.6414V10.9486C114.699 7.93417 113.461 5.17825 111.477 3.20618C109.498 1.22994 106.731 -0.002082 103.704 2.64131e-06C100.678 -0.002082 97.9125 1.22994 95.9309 3.20618C93.9471 5.17825 92.7096 7.93417 92.7117 10.9486V54.703C92.7117 56.2373 93.9595 57.4819 95.5018 57.4819C97.0419 57.4819 98.2898 56.2373 98.2898 54.703Z" fill="white"/>
<path d="M42.3219 22.3913V43.0313C42.3219 44.5656 43.5698 45.8101 45.1099 45.8101C46.6501 45.8101 47.9 44.5656 47.9 43.0313V22.3913C47.9 20.857 46.6521 19.6124 45.1099 19.6124C43.5698 19.6124 42.3219 20.8549 42.3219 22.3913Z" fill="white"/>
<path d="M58.7288 14.4508V50.9675C58.7288 52.5018 59.9766 53.7463 61.5168 53.7463C63.0569 53.7463 64.3069 52.5018 64.3069 50.9675V14.4508C64.3069 12.9165 63.059 11.672 61.5168 11.672C59.9766 11.6741 58.7288 12.9165 58.7288 14.4508Z" fill="white"/>
<path d="M143.103 22.3913V43.0313C143.103 44.5656 144.351 45.8101 145.893 45.8101C147.434 45.8101 148.681 44.5656 148.681 43.0313V22.3913C148.681 20.857 147.434 19.6124 145.893 19.6124C144.351 19.6124 143.103 20.8549 143.103 22.3913Z" fill="white"/>
<path d="M126.696 14.4508V50.9675C126.696 52.5018 127.944 53.7463 129.486 53.7463C131.027 53.7463 132.277 52.5018 132.277 50.9675V14.4508C132.277 12.9165 131.029 11.672 129.486 11.672C127.946 11.6741 126.696 12.9165 126.696 14.4508Z" fill="white"/>
</svg>
